<svg width="251" height="97" viewBox="0 0 251 97" fill="none" xmlns="http://www.w3.org/2000/svg">
<g id="logo_horizont 2" clip-path="url(#clip0_5_864)">
<path id="Vector" fill-rule="evenodd" clip-rule="evenodd" d="M0.800018 48.2692C0.800018 21.5385 23.4923 0 51.7616 0C79.6462 0 102.723 21.5385 102.723 48.2692C102.723 74.8077 79.8385 96.5385 51.7616 96.5385C23.4923 96.1538 0.800018 74.6154 0.800018 48.2692Z" fill="#EF3C23"/>
<path id="Vector_2" fill-rule="evenodd" clip-rule="evenodd" d="M94.2615 79.6154C94.2615 79.6154 86.3769 80.7692 86.1846 78.2692L89.6462 69.4231C89.8385 69.2307 90.0308 72.6923 97.1462 70.3846L94.2615 79.6154Z" fill="white"/>
<path id="Vector_3" fill-rule="evenodd" clip-rule="evenodd" d="M100.8 61.1538C100.8 61.1538 93.6846 63.2692 92.7231 59.8077L93.4923 51.9231C93.4923 51.9231 97.9154 52.8846 102.338 51.3461L100.8 61.1538Z" fill="white"/>
<path id="Vector_4" fill-rule="evenodd" clip-rule="evenodd" d="M104.454 34.8077C104.454 34.8077 97.9154 34.4231 95.9923 31.5385L94.8385 40.9615C94.8385 40.9615 96.5693 45.9615 103.492 43.8461L104.454 34.8077Z" fill="white"/>
<path id="Vector_5" fill-rule="evenodd" clip-rule="evenodd" d="M86.9539 72.6923C86.7615 72.3077 87.9154 69.8077 85.2231 69.6154L85.6077 60.7692C85.6077 60.7692 90.2231 60.3846 89.6462 63.6538L86.9539 72.6923Z" fill="white"/>
<path id="Vector_6" fill-rule="evenodd" clip-rule="evenodd" d="M89.8385 69.0384C89.8385 69.0384 92.7231 62.5 92.5308 59.6154L90.9923 55.3846C90.9923 55.3846 89.4539 62.6923 89.6462 62.6923C89.4539 62.6923 90.2231 68.4615 89.8385 69.0384Z" fill="white"/>
<path id="Vector_7" fill-rule="evenodd" clip-rule="evenodd" d="M85.6077 60.7692C85.6077 60.7692 77.9154 60.7692 72.5308 61.7308C72.5308 61.7308 69.6462 54.2308 69.0693 53.6538C69.0693 53.6538 82.3385 51.5385 84.0692 52.1154C84.0692 52.1154 85.8 59.8077 85.6077 60.7692Z" fill="white"/>
<path id="Vector_8" fill-rule="evenodd" clip-rule="evenodd" d="M89.0692 35.9616C89.0692 35.9616 85.6077 33.0769 77.7231 33.0769C77.7231 33.0769 77.1462 25.9616 78.8769 22.6923C78.8769 22.6923 86.1846 23.0769 90.4154 25.9616C90.4154 25.9616 88.6846 35 89.0692 35.9616Z" fill="white"/>
<path id="Vector_9" fill-rule="evenodd" clip-rule="evenodd" d="M55.8 34.6154C55.8 34.6154 33.4923 38.2693 31.1846 38.8462C31.1846 38.8462 28.6846 32.8846 31.9539 27.8846C31.9539 27.8846 52.9154 22.8846 55.4154 23.4616C55.2231 23.4616 54.0693 33.6539 55.8 34.6154Z" fill="white"/>
<path id="Vector_10" fill-rule="evenodd" clip-rule="evenodd" d="M72.9154 70C72.9154 70 60.4154 72.1154 57.1462 73.0769C57.1462 73.0769 57.5308 65.3846 55.8 64.6154C55.8 64.6154 63.6846 62.3077 72.3385 61.7308C72.1462 61.7308 72.9154 65.9615 72.9154 70Z" fill="white"/>
<path id="Vector_11" fill-rule="evenodd" clip-rule="evenodd" d="M55.0308 64.2307C55.0308 64.2307 38.3 68.0769 34.8385 68.8461C34.8385 68.8461 29.8385 61.9231 27.9154 61.1538C27.9154 61.1538 49.4539 56.3461 49.6462 56.3461C49.6462 56.3461 55.0308 62.1154 55.0308 64.2307Z" fill="white"/>
<path id="Vector_12" fill-rule="evenodd" clip-rule="evenodd" d="M2.33849 43.4615C2.33849 43.4615 18.3 54.4231 18.1077 54.4231C17.9154 54.4231 39.4539 49.4231 40.9923 49.4231C40.9923 49.4231 31.7616 41.9231 30.8 39.0385C31.1846 38.8462 21.5693 41.3462 2.33849 43.4615Z" fill="white"/>
<path id="Vector_13" fill-rule="evenodd" clip-rule="evenodd" d="M77.7231 33.2692L55.8 34.8077C55.9923 34.8077 60.9923 44.6154 62.7231 45.1923L79.8385 43.0769C80.2231 43.2692 77.1462 34.6154 77.7231 33.2692Z" fill="white"/>
<path id="Vector_14" fill-rule="evenodd" clip-rule="evenodd" d="M89.2616 36.1539C89.0693 36.3462 94.2616 41.1539 94.6462 41.1539C94.8385 41.1539 93.6846 51.5385 93.4923 51.5385C93.4923 51.7308 90.4154 46.9231 90.6077 46.3462C90.8 45.7692 89.6462 35.9615 89.2616 36.1539Z" fill="white"/>
<path id="Vector_15" fill-rule="evenodd" clip-rule="evenodd" d="M69.0692 53.8462L49.6462 56.1539C49.4539 56.1539 41.1846 49.4231 41.1846 49.2308C41.1846 49.2308 59.6462 45.5769 61.7616 45.1923C61.9539 45.1923 68.8769 53.6539 69.0692 53.8462Z" fill="white"/>
<path id="Vector_16" fill-rule="evenodd" clip-rule="evenodd" d="M90.8 55.3846C90.8 55.3846 87.1462 51.7308 83.8769 51.9231C83.4923 51.9231 81.3769 44.6154 79.6462 43.2692C83.1077 41.9231 90.6077 45.9615 90.4154 46.1538C90.4154 46.1538 91.3769 52.1154 90.8 55.3846Z" fill="white"/>
<path id="Vector_17" fill-rule="evenodd" clip-rule="evenodd" d="M103.3 34.8077L90.6077 80H112.338L116.762 64.2308H158.877L162.338 51.3461H120.223L121.185 47.5H163.3L166.762 35H103.3V34.8077Z" fill="white"/>
<path id="Vector_18" fill-rule="evenodd" clip-rule="evenodd" d="M136.185 66.9231H158.108L154.454 79.6154H132.723L136.185 66.9231Z" fill="#EF3C23"/>
<path id="Vector_19" fill-rule="evenodd" clip-rule="evenodd" d="M172.146 34.8077L168.492 47.3077H183.877L182.915 51.1538H167.723L164.069 64.0384H201.185L209.069 34.6154H172.146V34.8077Z" fill="#EF3C23"/>
<path id="Vector_20" fill-rule="evenodd" clip-rule="evenodd" d="M213.877 34.6154H250.8L247.531 47.3077H210.415L213.877 34.6154Z" fill="white"/>
<path id="Vector_21" fill-rule="evenodd" clip-rule="evenodd" d="M209.454 51.1538L205.992 64.0384H220.223L219.454 66.923H178.492L175.031 79.8077H239.069L246.569 51.1538H209.454Z" fill="white"/>
<path id="Vector_22" fill-rule="evenodd" clip-rule="evenodd" d="M94.6462 88.0769H101.185C102.531 88.0769 103.492 87.5 103.685 86.3461C104.069 85.1923 103.492 84.423 101.954 84.423H95.6077L94.6462 88.0769ZM101.954 89.6154L103.685 93.8461H101.569L99.6462 89.6154H94.0692L92.9154 93.8461H91.1846L94.0692 82.8846H102.723C103.877 82.8846 104.646 83.2692 105.223 83.8461C105.8 84.423 105.8 85.3846 105.608 86.3461C105.415 87.3077 104.838 88.0769 104.262 88.6538C103.685 89.2307 102.915 89.423 101.954 89.6154Z" fill="#E43416"/>
<path id="Vector_23" fill-rule="evenodd" clip-rule="evenodd" d="M110.031 89.8077H115.608L114.262 84.6154L110.031 89.8077ZM115.8 82.8846L118.685 93.8461H116.762L116.185 91.3461H108.877L106.954 93.8461H105.031L113.685 82.8846H115.8Z" fill="#E43416"/>
<path id="Vector_24" fill-rule="evenodd" clip-rule="evenodd" d="M135.415 85.3846L133.492 85.9615C132.723 84.8077 131.377 84.2307 129.262 84.2307C127.723 84.2307 126.377 84.6154 125.223 85.3846C124.069 86.1538 123.3 87.1154 123.108 88.2692C122.723 89.423 122.915 90.5769 123.685 91.3461C124.454 92.1154 125.608 92.5 127.146 92.5C129.069 92.5 130.8 91.923 132.146 90.7692L133.492 91.5384C132.531 92.5 131.377 93.0769 130.415 93.4615C129.262 93.8461 128.108 94.0384 126.762 94.0384C124.838 94.0384 123.3 93.6538 122.338 92.5C121.185 91.3461 120.8 90 121.377 88.0769C121.762 86.3461 122.915 84.8077 124.646 83.6538C126.185 82.6923 127.915 82.1154 129.838 82.1154C132.531 82.6923 134.454 83.6538 135.415 85.3846Z" fill="#E43416"/>
<path id="Vector_25" fill-rule="evenodd" clip-rule="evenodd" d="M141.185 82.8846L138.3 93.8461H136.569L139.262 82.8846H141.185Z" fill="#E43416"/>
<path id="Vector_26" fill-rule="evenodd" clip-rule="evenodd" d="M156.762 82.8846L153.877 93.8461H151.569L145.608 85L143.3 93.8461H141.569L144.262 82.8846H146.569L152.531 91.923L154.838 82.8846H156.762Z" fill="#E43416"/>
<path id="Vector_27" fill-rule="evenodd" clip-rule="evenodd" d="M172.338 88.0769C171.762 90 170.8 91.5384 169.262 92.5C167.723 93.6538 165.8 94.2308 163.877 94.2308C161.954 94.2308 160.415 93.6538 159.454 92.6923C158.3 91.5384 157.915 90.1923 158.3 88.2692C158.685 86.5385 159.838 85 161.569 83.8461C163.108 82.8846 164.838 82.3077 166.954 82.3077C169.262 82.3077 170.992 83.2692 172.146 85L170.223 85.7692C169.454 84.6154 168.108 83.8461 166.377 83.8461C165.031 83.8461 163.685 84.2308 162.723 84.8077C161.377 85.5769 160.608 86.7308 160.223 87.8846C159.838 89.0384 160.223 90.1923 160.8 90.9615C161.569 91.7308 162.723 92.1154 164.262 92.1154C166.762 92.1154 168.492 91.1538 169.646 89.2308H164.646L165.031 87.5H172.338V88.0769Z" fill="#E43416"/>
<path id="Vector_28" d="M192.146 82.8846L191.762 84.6154H186.569L184.069 93.8461H182.338L184.646 84.6154H179.454L179.838 82.8846H192.146Z" fill="white"/>
<path id="Vector_29" d="M202.915 92.3077L202.531 93.8461H191.185L193.877 82.8846H204.838L204.454 84.6154H195.223L194.646 87.5H200.992L200.608 89.0384H194.262L193.3 92.3077H202.915Z" fill="white"/>
<path id="Vector_30" d="M208.685 89.8077H214.262L212.915 84.423L208.685 89.8077ZM214.454 82.8846L217.338 93.8461H215.415L214.838 91.3461H207.531L205.608 93.8461H203.685L212.338 82.8846H214.454Z" fill="white"/>
<path id="Vector_31" d="M237.531 82.8846L234.646 93.8461H232.723L235.031 85L227.531 92.1154L223.877 85H223.685L221.377 93.8461H219.646L222.531 82.8846H224.646L228.3 89.6154L235.223 82.8846H237.531Z" fill="white"/>
</g>
<defs>
<clipPath id="clip0_5_864">
<rect width="250" height="96.1538" fill="white" transform="translate(0.800018)"/>
</clipPath>
</defs>
</svg>
